<svg width="20" height="20" viewBox="0 0 20 20" fill="none" xmlns="http://www.w3.org/2000/svg">
<g clip-path="url(#clip0_71_4658)">
<path fill-rule="evenodd" clip-rule="evenodd" d="M10.8335 1.66665C10.8335 1.20641 10.4604 0.833313 10.0002 0.833313C9.53993 0.833313 9.16683 1.20641 9.16683 1.66665V4.99998C9.16683 5.46022 9.53993 5.83331 10.0002 5.83331C10.4604 5.83331 10.8335 5.46022 10.8335 4.99998V1.66665ZM10.8335 15C10.8335 14.5397 10.4604 14.1666 10.0002 14.1666C9.53993 14.1666 9.16683 14.5397 9.16683 15V18.3333C9.16683 18.7936 9.53993 19.1666 10.0002 19.1666C10.4604 19.1666 10.8335 18.7936 10.8335 18.3333V15ZM3.51939 3.5191C3.84482 3.19367 4.37246 3.19367 4.6979 3.5191L7.05623 5.87744C7.38167 6.20287 7.38167 6.73051 7.05623 7.05595C6.7308 7.38138 6.20316 7.38138 5.87772 7.05595L3.51939 4.69761C3.19395 4.37218 3.19395 3.84454 3.51939 3.5191ZM14.1229 12.944C13.7975 12.6186 13.2699 12.6186 12.9444 12.944C12.619 13.2695 12.619 13.7971 12.9444 14.1226L15.3028 16.4809C15.6282 16.8063 16.1558 16.8063 16.4813 16.4809C16.8067 16.1555 16.8067 15.6278 16.4813 15.3024L14.1229 12.944ZM0.833496 9.99998C0.833496 9.53974 1.20659 9.16665 1.66683 9.16665H5.00016C5.4604 9.16665 5.8335 9.53974 5.8335 9.99998C5.8335 10.4602 5.4604 10.8333 5.00016 10.8333H1.66683C1.20659 10.8333 0.833496 10.4602 0.833496 9.99998ZM15.0002 9.16665C14.5399 9.16665 14.1668 9.53974 14.1668 9.99998C14.1668 10.4602 14.5399 10.8333 15.0002 10.8333H18.3335C18.7937 10.8333 19.1668 10.4602 19.1668 9.99998C19.1668 9.53974 18.7937 9.16665 18.3335 9.16665H15.0002ZM7.05623 12.944C7.38167 13.2695 7.38167 13.7971 7.05623 14.1226L4.6979 16.4809C4.37246 16.8063 3.84482 16.8063 3.51939 16.4809C3.19395 16.1555 3.19395 15.6278 3.51939 15.3024L5.87772 12.944C6.20316 12.6186 6.7308 12.6186 7.05623 12.944ZM16.4813 4.69761C16.8067 4.37218 16.8067 3.84454 16.4813 3.5191C16.1558 3.19367 15.6282 3.19367 15.3028 3.5191L12.9444 5.87744C12.619 6.20287 12.619 6.73051 12.9444 7.05595C13.2699 7.38138 13.7975 7.38138 14.1229 7.05595L16.4813 4.69761Z" fill="white"/>
</g>
<defs>
<clipPath id="clip0_71_4658">
<rect width="20" height="20" fill="white"/>
</clipPath>
</defs>
</svg>

